<?xml version="1.0" standalone="no"?>
<!DOCTYPE svg PUBLIC "-//W3C//DTD SVG 20010904//EN"
 "http://www.w3.org/TR/2001/REC-SVG-20010904/DTD/svg10.dtd">
<svg version="1.0" xmlns="http://www.w3.org/2000/svg"
 width="1205.000000pt" height="1205.000000pt" viewBox="0 0 1205.000000 1205.000000"
 preserveAspectRatio="xMidYMid meet">
<metadata>
Created by potrace 1.14, written by Peter Selinger 2001-2017
</metadata>
<g transform="translate(0.000000,1205.000000) scale(0.100000,-0.100000)"
fill="#000000" stroke="none">
<path d="M2409 10796 c-4 -4 -169 -17 -241 -20 -16 0 -28 -5 -28 -9 0 -5 -4
-6 -9 -3 -10 6 -89 -8 -246 -45 -27 -7 -65 -18 -82 -26 -18 -7 -33 -10 -33 -7
0 4 -6 2 -12 -3 -7 -5 -42 -20 -78 -33 -36 -13 -68 -28 -72 -34 -4 -6 -10 -7
-14 -4 -4 4 -20 -2 -35 -13 -16 -11 -29 -18 -29 -15 0 3 -23 -8 -50 -24 -28
-17 -53 -30 -55 -30 -2 0 -34 -19 -72 -42 -404 -250 -722 -651 -866 -1093 -35
-105 -69 -249 -82 -340 -3 -22 -8 -60 -12 -85 -9 -60 -9 -382 1 -445 4 -27 9
-63 11 -80 16 -114 65 -302 106 -400 7 -16 13 -36 15 -43 1 -8 14 -38 28 -68
14 -30 26 -58 26 -63 0 -5 9 -20 21 -35 11 -14 17 -26 13 -26 -4 0 1 -9 11
-20 10 -11 15 -20 11 -20 -4 0 2 -13 13 -29 12 -16 21 -34 21 -39 0 -6 3 -12
8 -14 4 -1 25 -31 47 -65 22 -35 43 -63 48 -63 4 0 7 -5 7 -11 0 -11 45 -69
98 -125 17 -19 32 -36 32 -38 0 -13 181 -182 261 -243 54 -42 79 -52 79 -34 0
21 267 403 333 477 6 7 17 19 22 26 91 118 495 525 508 512 2 -2 25 16 51 40
26 25 50 44 53 44 2 0 15 9 27 19 13 11 51 40 87 64 35 24 66 46 69 49 5 6
195 127 242 155 57 34 305 164 316 166 4 1 23 9 42 19 46 23 248 106 280 116
14 3 27 10 30 13 7 10 336 115 465 150 153 41 173 45 220 54 17 4 48 11 70 16
22 5 54 12 70 15 17 3 41 8 55 11 14 4 34 8 45 9 21 4 139 26 165 31 8 2 18 4
22 4 3 1 0 26 -7 56 -7 30 -11 55 -8 55 2 0 -1 8 -6 18 -5 9 -11 31 -14 47 -3
17 -22 77 -42 135 -21 58 -42 120 -49 138 -6 17 -15 32 -19 32 -5 0 -5 5 -2
10 3 6 1 10 -6 10 -7 0 -10 3 -6 6 6 6 -56 131 -91 183 -10 14 -23 37 -30 51
-13 26 -100 144 -162 221 -91 113 -281 286 -405 369 -27 19 -53 38 -57 44 -4
6 -8 8 -8 4 0 -4 -24 8 -54 27 -69 44 -238 127 -296 145 -25 7 -49 17 -55 20
-11 8 -140 48 -170 53 -11 2 -27 7 -36 11 -9 4 -33 8 -53 9 -20 1 -36 5 -36 8
0 3 -6 6 -12 7 -25 2 -94 11 -128 16 -19 3 -81 7 -138 10 -56 3 -106 7 -111
10 -4 3 -10 4 -12 2z"/>
<path d="M4847 8693 c-1 0 -29 -4 -62 -7 -136 -13 -165 -16 -197 -21 -18 -3
-41 -8 -51 -11 -10 -3 -30 -7 -45 -9 -15 -2 -90 -16 -167 -30 -77 -15 -153
-29 -170 -32 -16 -3 -38 -9 -47 -14 -10 -5 -18 -8 -18 -6 0 4 -42 -5 -130 -28
-8 -2 -35 -8 -60 -15 -62 -15 -258 -74 -290 -87 -8 -4 -18 -7 -22 -7 -3 -1
-10 -4 -14 -8 -4 -5 -14 -8 -23 -8 -49 0 -632 -264 -661 -299 -3 -3 -18 -13
-35 -21 -16 -8 -32 -17 -35 -20 -3 -3 -15 -11 -27 -17 -55 -31 -68 -39 -79
-48 -6 -5 -22 -17 -34 -25 -12 -8 -51 -35 -85 -60 -35 -25 -73 -52 -85 -60
-12 -8 -32 -24 -44 -35 -13 -11 -45 -38 -71 -60 -138 -113 -326 -302 -428
-430 -27 -33 -55 -69 -64 -79 -41 -50 -103 -135 -103 -141 0 -3 -7 -13 -15
-22 -45 -45 -154 -234 -157 -273 0 -3 -6 -21 -13 -40 -23 -60 -98 -304 -98
-317 0 -7 -4 -13 -9 -13 -5 0 -7 -4 -4 -9 3 -5 -1 -22 -9 -37 -8 -16 -15 -35
-15 -42 0 -7 -4 -20 -9 -30 -5 -9 -19 -46 -32 -82 -12 -36 -26 -69 -31 -74 -4
-6 -8 -18 -8 -28 0 -10 -4 -18 -10 -18 -5 0 -10 -8 -10 -18 0 -10 -8 -29 -17
-42 -10 -14 -18 -29 -19 -35 -2 -14 -66 -109 -76 -113 -4 -2 -8 -8 -8 -13 0
-13 -45 -54 -135 -127 -468 -377 -733 -746 -803 -1117 -8 -43 -8 -304 1 -340
3 -16 9 -42 13 -58 3 -17 10 -25 17 -20 6 4 18 8 27 9 22 2 168 33 215 45 22
6 48 13 57 15 44 10 58 13 133 34 44 11 89 23 100 24 11 2 20 4 20 5 0 2 9 4
20 6 11 3 72 18 135 35 63 17 126 33 139 36 14 3 28 7 33 10 4 3 16 7 25 9 10
2 61 15 113 30 52 14 118 32 145 40 73 20 178 50 275 79 47 14 86 25 88 26 1
0 3 0 5 1 4 1 32 8 55 13 12 3 27 8 32 11 5 3 18 8 27 10 21 4 126 34 228 65
39 12 81 23 94 26 14 3 28 7 32 10 7 4 274 85 324 98 6 1 42 13 80 25 39 12
79 24 90 27 12 2 45 12 75 22 30 11 57 20 60 20 3 0 12 3 20 6 63 20 221 67
227 68 5 0 19 5 33 10 14 5 32 11 40 13 8 2 47 14 85 26 39 12 75 23 80 25 6
1 64 19 130 39 66 21 121 38 122 37 2 -1 18 5 38 14 19 8 36 14 37 13 2 0 10
2 18 5 95 31 318 99 330 101 9 0 20 4 25 7 10 5 79 29 102 35 22 5 37 10 53
16 8 3 103 33 210 67 107 34 222 71 255 82 33 11 65 21 70 22 27 6 161 49 170
54 6 4 12 7 15 7 8 1 154 46 170 52 8 4 18 7 23 8 4 2 8 3 10 5 1 1 9 3 17 5
8 2 51 15 95 30 44 15 87 29 95 31 8 2 49 15 90 29 41 15 82 28 90 30 20 5
261 84 280 92 8 3 18 7 23 8 4 2 8 3 10 4 1 2 13 4 26 7 14 2 30 9 37 15 6 5
16 9 20 8 5 -1 16 1 24 4 21 9 321 108 340 112 8 2 26 8 40 13 14 5 30 11 35
13 6 2 87 29 180 61 94 32 175 60 180 61 19 5 90 28 105 34 8 4 17 7 20 8 22
5 297 99 305 104 6 3 15 6 20 7 6 1 109 37 230 79 121 42 226 77 233 78 6 0
12 4 12 9 0 4 3 7 8 7 4 -1 9 0 12 1 3 1 12 3 20 5 8 3 22 6 30 8 8 2 22 7 30
10 8 4 53 20 100 36 47 16 102 37 122 45 21 9 39 16 40 15 2 0 16 4 31 10 16
6 34 11 42 11 8 0 16 4 19 9 3 5 18 12 33 15 16 4 73 23 128 42 102 36 118 42
240 89 39 15 77 28 86 30 8 2 33 11 55 21 21 9 44 18 49 20 41 11 141 51 147
59 4 5 8 6 8 1 0 -5 7 -2 17 5 9 8 18 12 20 10 2 -1 16 2 31 7 15 6 99 39 187
73 88 33 166 66 173 71 6 6 12 8 12 5 0 -3 21 3 48 14 26 11 56 24 67 29 11 4
40 17 65 28 25 10 74 32 110 47 36 15 67 29 69 31 2 1 -14 18 -35 36 -21 18
-49 43 -63 55 -40 35 -40 35 -172 132 -68 50 -128 95 -134 99 -51 40 -226 141
-345 200 -177 88 -369 159 -447 164 -7 1 -13 5 -13 10 0 5 -4 7 -9 4 -4 -3
-23 -1 -42 5 -19 5 -43 12 -54 14 -11 3 -33 8 -50 12 -16 3 -37 7 -45 8 -8 1
-28 5 -45 9 -44 9 -77 16 -105 22 -22 4 -54 10 -150 29 -29 6 -50 10 -140 25
-91 16 -105 18 -105 20 0 1 -11 3 -25 5 -35 5 -185 32 -250 45 -30 6 -66 13
-80 16 -14 2 -36 7 -50 10 -14 3 -36 8 -50 10 -14 3 -59 12 -100 20 -41 9 -86
18 -99 20 -13 3 -54 12 -90 20 -87 19 -101 22 -131 27 -26 4 -71 15 -290 69
-69 17 -132 31 -140 31 -8 0 -19 3 -25 7 -5 4 -28 11 -50 15 -22 5 -45 9 -52
11 -6 1 -27 7 -45 13 -18 6 -45 12 -59 15 -15 2 -51 11 -80 20 -52 15 -160 45
-244 67 -22 6 -53 14 -70 19 -34 10 -291 65 -345 74 -19 3 -44 7 -55 10 -11 2
-49 7 -85 11 -36 4 -76 9 -90 11 -14 2 -65 6 -115 10 -49 3 -93 8 -97 10 -5 3
-8 -1 -8 -8 0 -8 -3 -9 -8 -3 -5 8 -207 16 -215 8z"/>
<path d="M10399 7015 c-19 -7 -50 -18 -69 -25 -19 -8 -37 -16 -40 -19 -3 -4
-32 -17 -65 -30 -33 -13 -82 -33 -110 -46 -27 -12 -61 -26 -75 -30 -14 -4 -38
-13 -55 -21 -73 -32 -237 -94 -250 -94 -8 0 -15 -4 -15 -10 0 -5 -6 -10 -14
-10 -14 0 -360 -128 -421 -155 -16 -8 -33 -11 -37 -9 -4 3 -8 0 -8 -6 0 -7 -6
-10 -14 -7 -8 3 -20 -1 -27 -9 -6 -8 -14 -13 -16 -10 -2 2 -41 -9 -86 -26 -45
-17 -131 -48 -192 -69 -60 -22 -117 -42 -125 -46 -8 -3 -19 -7 -25 -9 -36 -10
-163 -55 -175 -62 -8 -4 -49 -19 -90 -33 -41 -13 -78 -28 -82 -34 -4 -5 -8 -7
-8 -4 0 4 -71 -18 -157 -48 -87 -30 -178 -61 -203 -70 -25 -8 -54 -19 -65 -23
-11 -5 -83 -30 -160 -55 -77 -25 -149 -50 -160 -54 -11 -5 -33 -14 -50 -21
-16 -7 -41 -14 -55 -17 -13 -2 -30 -9 -37 -15 -7 -6 -13 -8 -13 -4 0 3 -17 0
-37 -8 -21 -8 -47 -17 -58 -22 -11 -4 -24 -8 -30 -10 -36 -9 -381 -129 -385
-134 -3 -3 -12 -6 -20 -7 -14 -1 -428 -136 -460 -150 -8 -3 -19 -7 -25 -9 -47
-12 -322 -108 -331 -115 -6 -5 -13 -7 -15 -4 -3 2 -77 -20 -164 -50 -88 -29
-163 -51 -167 -49 -4 3 -8 0 -8 -5 0 -6 -9 -11 -20 -11 -12 0 -34 -7 -50 -15
-17 -9 -31 -15 -32 -15 -3 1 -12 -1 -83 -24 -56 -19 -54 -18 -115 -35 -25 -7
-49 -16 -55 -21 -5 -4 -17 -8 -25 -8 -8 0 -42 -10 -75 -22 -33 -12 -67 -23
-75 -25 -8 -2 -64 -20 -125 -40 -60 -20 -118 -37 -128 -38 -9 -1 -17 -4 -17
-7 0 -5 -44 -20 -105 -36 -5 -1 -95 -30 -200 -63 -104 -34 -221 -71 -260 -83
-38 -12 -76 -26 -82 -31 -7 -5 -13 -7 -13 -4 0 3 -52 -12 -115 -33 -63 -21
-115 -37 -115 -34 0 3 -10 -1 -22 -8 -13 -6 -32 -14 -43 -16 -28 -5 -37 -8
-65 -19 -14 -6 -28 -9 -32 -6 -5 2 -8 0 -8 -5 0 -5 -6 -9 -12 -9 -7 0 -51 -12
-98 -27 -47 -16 -92 -29 -101 -31 -8 -2 -31 -10 -50 -17 -18 -8 -36 -15 -39
-15 -6 -1 -91 -23 -105 -27 -5 -2 -13 -4 -17 -5 -5 -1 -25 -7 -45 -15 -21 -8
-67 -23 -103 -34 -36 -11 -117 -36 -180 -55 -208 -65 -325 -101 -335 -103 -5
-2 -41 -12 -80 -24 -59 -19 -141 -43 -180 -54 -5 -2 -17 -6 -25 -9 -12 -5 -57
-18 -115 -33 -5 -1 -93 -28 -195 -59 -102 -31 -192 -57 -200 -59 -8 -2 -35
-10 -60 -17 -25 -7 -48 -13 -52 -15 -5 -1 -9 -2 -10 -4 -2 -1 -10 -3 -18 -5
-8 -2 -45 -13 -82 -23 -36 -11 -69 -18 -72 -14 -3 3 -6 -1 -6 -8 0 -7 -3 -11
-6 -7 -3 3 -23 -1 -45 -8 -22 -8 -40 -14 -42 -14 -1 0 -9 -2 -17 -5 -19 -6
-237 -66 -389 -107 -63 -16 -122 -34 -131 -39 -10 -5 -20 -7 -23 -4 -3 3 -12
2 -19 -2 -7 -5 -17 -9 -23 -10 -29 -6 -106 -25 -155 -39 -12 -3 -119 -31 -200
-51 -8 -2 -35 -9 -60 -15 -25 -6 -54 -13 -65 -15 -11 -1 -30 -5 -43 -8 -29 -8
-59 -14 -102 -23 -46 -9 -49 -10 -55 -13 -3 -1 -9 -4 -15 -5 -5 -1 -12 -4 -15
-5 -3 -1 -8 -3 -12 -4 -26 -6 -94 -50 -126 -82 -117 -115 -181 -284 -203 -534
-4 -51 -4 -297 1 -350 2 -25 6 -76 10 -115 3 -38 7 -81 9 -95 11 -74 28 -188
32 -210 3 -14 7 -34 8 -45 2 -11 7 -37 11 -59 4 -21 9 -48 11 -60 3 -11 7 -32
10 -46 3 -14 7 -33 10 -42 3 -10 7 -28 10 -40 2 -13 13 -54 24 -93 12 -38 23
-77 25 -85 2 -8 14 -42 26 -75 13 -33 23 -62 24 -65 1 -13 50 -107 63 -122 8
-10 11 -18 6 -18 -5 0 -4 -4 1 -8 6 -4 23 -27 39 -52 41 -63 118 -143 203
-211 70 -56 74 -57 109 -47 20 5 46 12 58 14 38 9 51 12 51 14 0 1 7 3 15 5
42 8 148 37 170 45 14 6 34 11 45 13 11 1 25 5 30 8 6 4 28 10 50 14 22 4 44
10 50 13 5 4 15 7 20 8 6 1 26 5 45 9 19 3 40 11 47 17 7 6 13 8 13 5 0 -3 15
-1 33 4 17 6 43 12 56 15 13 3 32 9 43 15 10 5 18 8 18 6 0 -3 37 6 83 20 99
29 97 29 172 48 93 25 111 30 250 69 72 21 137 40 145 43 22 9 32 11 65 18 17
3 41 10 55 15 22 8 198 58 225 64 6 2 37 10 70 20 33 10 90 26 128 37 37 10
99 28 137 40 39 11 76 22 83 23 7 1 18 5 25 9 6 5 17 5 22 2 6 -3 10 -1 10 6
0 7 3 10 6 6 3 -3 23 1 45 8 22 8 41 14 44 14 3 0 31 8 63 18 31 9 62 18 67
19 6 2 51 14 100 29 50 14 97 28 105 30 8 2 16 4 18 5 2 3 2 3 52 14 19 5 39
11 45 14 5 3 18 7 30 8 11 1 34 8 50 15 17 7 35 13 41 14 35 8 482 137 499
145 16 7 231 71 285 85 8 2 15 4 15 5 0 2 36 10 58 12 9 1 17 6 17 10 0 4 7 8
16 8 12 0 144 39 389 114 22 7 42 13 45 13 16 2 158 45 170 52 13 7 42 15 90
26 3 1 46 14 95 29 50 16 95 29 100 30 6 1 77 24 159 50 83 27 155 49 160 50
12 2 83 24 106 33 8 3 23 8 32 9 9 2 36 11 60 19 24 9 54 18 67 21 14 3 29 8
35 12 6 3 16 7 21 8 20 3 341 106 360 115 12 6 27 11 35 13 20 3 60 15 85 25
11 5 52 18 90 31 39 12 77 24 85 27 8 4 21 7 28 9 8 1 21 6 30 10 9 4 22 8 27
10 22 5 136 45 260 89 72 26 140 49 153 52 12 3 25 9 28 14 3 5 12 9 21 9 9 0
62 18 119 41 56 22 108 42 116 43 15 3 44 14 73 27 11 5 76 29 145 54 69 25
134 50 145 55 11 5 52 21 90 35 39 14 79 29 90 34 38 17 187 73 198 75 7 1 19
6 27 11 8 5 22 10 30 12 8 1 23 6 35 11 35 17 84 34 87 31 2 -2 17 5 33 14 32
18 180 77 205 82 8 2 33 11 55 20 73 32 282 115 300 120 6 1 21 7 35 12 14 6
61 25 105 42 44 18 94 38 110 45 17 7 46 19 65 26 19 6 44 16 55 20 24 9 112
45 152 62 15 6 33 12 38 13 6 2 31 11 55 22 55 24 113 48 120 48 3 0 15 6 26
13 12 6 24 8 28 5 3 -3 6 -2 6 4 0 5 6 10 13 10 11 1 456 178 524 209 17 8 34
14 38 14 3 0 25 8 48 19 23 10 103 42 177 72 74 30 137 56 140 59 3 3 10 6 15
7 15 2 264 101 305 121 19 9 37 17 40 17 3 0 20 9 37 18 18 10 34 17 35 17 4
-2 38 10 63 20 11 5 30 12 43 15 12 4 22 11 22 16 0 5 7 9 16 9 15 0 441 174
498 204 16 8 33 13 38 10 4 -3 8 -1 8 3 0 7 49 33 71 37 3 0 28 12 56 25 98
45 122 133 89 321 -5 31 -34 128 -46 155 -4 11 -23 56 -40 100 -33 83 -228
480 -271 550 -13 22 -55 103 -94 180 -38 77 -73 142 -76 145 -3 3 -11 20 -18
38 -8 17 -17 32 -22 32 -4 0 -11 9 -14 20 -9 27 -205 223 -205 205 0 -3 -21 8
-47 23 -59 35 -149 73 -174 75 -10 1 -19 4 -19 8 0 3 -19 10 -42 14 -24 5 -50
10 -58 11 -8 2 -26 6 -40 8 -14 2 -41 7 -60 11 -67 13 -305 13 -341 0z"/>
</g>
</svg>
