<?xml version="1.0" standalone="no"?>
<!DOCTYPE svg PUBLIC "-//W3C//DTD SVG 20010904//EN"
 "http://www.w3.org/TR/2001/REC-SVG-20010904/DTD/svg10.dtd">
<svg version="1.0" xmlns="http://www.w3.org/2000/svg"
 width="724.000000pt" height="724.000000pt" viewBox="0 0 724.000000 724.000000"
 preserveAspectRatio="xMidYMid meet">
<metadata>
Created by potrace 1.14, written by Peter Selinger 2001-2017
</metadata>
<g transform="translate(0.000000,724.000000) scale(0.100000,-0.100000)"
fill="#000000" stroke="none">
<path d="M1147 6484 c-2 -2 -23 -6 -48 -9 -77 -10 -261 -63 -267 -77 -2 -5 -8
-8 -13 -8 -20 0 -128 -57 -186 -97 -17 -13 -34 -23 -37 -23 -9 0 -98 -76 -160
-135 -45 -43 -146 -170 -146 -184 0 -6 -4 -11 -9 -11 -12 0 -114 -209 -135
-275 -45 -145 -60 -245 -60 -395 1 -134 17 -232 64 -373 27 -80 112 -255 140
-290 5 -7 31 -39 57 -72 57 -73 213 -225 230 -225 4 0 22 -12 42 -27 20 -16
38 -28 41 -28 3 -1 21 -11 40 -23 55 -34 51 -37 96 63 10 22 19 42 19 45 1 3
16 34 34 70 19 36 39 75 45 87 6 13 14 23 19 23 4 0 7 6 7 13 0 22 152 240
235 337 50 58 217 222 269 265 27 22 54 45 61 51 45 45 405 272 405 256 0 -4
4 -2 8 3 6 9 194 105 206 105 2 0 20 7 40 15 20 8 38 15 41 15 3 -1 18 6 33
14 15 8 69 29 120 47 109 38 108 29 37 171 -89 178 -214 328 -374 447 -205
151 -446 229 -713 229 -75 0 -139 -2 -141 -4z"/>
<path d="M2909 5506 c-4 -3 -80 -14 -144 -21 -11 -1 -32 -5 -46 -9 -14 -4 -32
-8 -40 -10 -8 -1 -34 -9 -59 -16 -25 -7 -49 -15 -55 -16 -5 -1 -55 -19 -110
-39 -55 -21 -109 -40 -120 -43 -11 -2 -24 -8 -30 -12 -5 -4 -37 -17 -70 -30
-86 -34 -309 -149 -383 -198 -35 -23 -66 -42 -69 -42 -3 0 -18 -10 -33 -22
-15 -13 -37 -30 -50 -38 -12 -8 -30 -22 -40 -30 -10 -8 -35 -28 -56 -45 -61
-48 -235 -225 -284 -290 -25 -33 -47 -62 -50 -65 -12 -11 -60 -79 -60 -84 0
-3 -14 -26 -31 -51 -72 -107 -164 -308 -174 -380 -46 -333 -64 -418 -109 -519
-22 -47 -47 -82 -119 -160 -16 -17 -54 -65 -85 -106 -31 -41 -60 -76 -64 -78
-5 -2 -8 -8 -8 -13 0 -5 -16 -33 -35 -64 -20 -30 -32 -55 -28 -55 4 0 3 -4 -3
-8 -10 -7 -28 -42 -57 -113 -25 -61 -48 -180 -49 -253 -1 -76 5 -111 29 -193
l16 -51 51 20 c28 11 62 25 76 31 14 5 30 11 35 12 6 2 35 14 65 28 30 14 82
36 115 50 55 23 97 42 240 108 28 13 53 22 58 21 4 -1 7 2 7 8 0 5 9 10 20 10
11 0 20 5 20 10 0 6 3 9 8 8 7 -2 82 31 175 78 27 13 55 24 63 24 8 0 14 5 14
10 0 6 9 10 20 10 11 0 20 5 20 10 0 6 5 10 11 10 12 0 212 93 239 110 8 6 27
15 41 21 14 5 111 52 215 103 104 51 207 101 229 111 22 11 43 24 47 29 4 6 8
8 8 5 0 -4 93 40 207 97 113 57 212 104 220 104 7 0 13 3 13 8 0 4 25 18 55
32 30 14 55 28 55 33 0 4 3 6 8 5 12 -4 723 359 1287 657 50 26 142 74 205
108 63 33 149 79 190 101 41 23 102 55 135 71 33 17 62 33 65 36 3 3 50 29
104 58 54 29 140 75 190 103 50 28 116 65 146 81 30 16 62 35 70 41 8 6 33 20
55 31 22 11 42 22 45 25 7 7 42 29 60 37 16 7 218 128 287 171 23 15 41 31 40
36 -5 14 -175 109 -287 159 -101 44 -207 82 -256 91 -13 3 -28 8 -34 11 -6 4
-25 8 -43 11 -186 22 -199 24 -367 29 -480 14 -715 22 -715 25 0 0 -34 3 -75
5 -108 6 -298 22 -380 30 -19 3 -62 7 -95 10 -33 3 -76 8 -95 11 -38 6 -446
15 -451 10z"/>
<path d="M6277 5044 c-1 -1 -29 -6 -62 -9 -60 -7 -114 -29 -170 -69 -34 -24
-136 -86 -141 -86 -2 0 -27 -15 -56 -33 -29 -19 -60 -37 -68 -40 -8 -4 -22
-11 -30 -17 -53 -34 -152 -90 -160 -90 -6 0 -10 -4 -10 -10 0 -5 -5 -10 -10
-10 -6 0 -45 -20 -88 -44 -70 -39 -149 -83 -227 -125 -16 -9 -32 -18 -35 -21
-5 -5 -67 -38 -190 -102 -36 -18 -67 -35 -70 -38 -3 -3 -39 -23 -80 -44 -117
-61 -184 -98 -197 -109 -7 -5 -13 -6 -13 -1 0 5 -4 4 -8 -1 -4 -6 -41 -28 -82
-49 -41 -22 -97 -51 -125 -66 -27 -15 -113 -60 -190 -101 -77 -40 -165 -86
-195 -102 -56 -29 -283 -147 -535 -277 -77 -40 -403 -205 -725 -367 -322 -161
-590 -298 -597 -303 -7 -6 -16 -10 -20 -10 -5 0 -87 -39 -183 -87 -96 -47
-181 -88 -189 -89 -8 -1 -18 -9 -22 -16 -5 -7 -9 -10 -9 -6 0 4 -37 -11 -82
-34 -46 -23 -85 -43 -88 -43 -3 -1 -43 -20 -90 -42 -233 -111 -308 -146 -345
-163 -22 -10 -75 -34 -118 -54 -42 -20 -79 -36 -81 -36 -3 0 -37 -15 -78 -34
-101 -46 -200 -88 -286 -122 -74 -28 -162 -93 -162 -120 0 -8 -5 -14 -12 -14
-6 0 -8 -3 -5 -7 4 -3 3 -11 -2 -17 -16 -21 -33 -118 -33 -186 0 -67 11 -190
17 -200 2 -3 6 -23 9 -45 4 -22 13 -65 22 -95 8 -30 16 -59 18 -65 21 -75 32
-110 62 -188 73 -195 138 -312 213 -388 39 -38 124 -99 139 -99 5 0 15 -7 22
-14 13 -16 23 -14 113 28 103 48 209 96 212 96 1 0 51 23 109 50 58 28 111 50
116 50 6 0 10 5 10 12 0 6 3 9 6 5 4 -3 21 1 38 10 17 10 33 18 36 18 3 1 41
19 85 39 44 21 100 47 125 58 25 11 83 39 130 61 101 47 326 153 475 222 39
18 124 59 190 90 66 31 158 75 205 97 47 22 123 59 170 82 47 23 87 43 90 43
16 3 69 30 95 47 17 12 32 20 35 20 5 -2 219 101 520 249 96 48 179 86 184 86
5 0 12 3 15 8 3 5 85 49 181 98 96 48 220 111 275 140 55 29 120 64 145 77 25
12 47 26 50 29 3 4 15 9 27 13 13 4 29 13 35 19 7 7 29 20 48 29 19 10 55 29
80 44 118 69 253 144 261 144 5 0 9 3 9 8 0 4 10 12 23 18 38 18 121 66 149
85 14 11 28 19 31 19 2 0 78 44 168 97 144 85 284 167 337 198 10 6 81 48 160
95 78 47 150 90 159 95 20 11 105 63 138 82 11 7 28 16 38 19 9 3 17 10 17 14
0 4 8 10 18 13 16 5 64 33 87 50 11 8 107 66 164 99 19 11 59 35 88 54 29 19
58 34 63 34 6 0 10 3 10 8 0 4 17 16 38 27 20 11 63 36 95 57 32 21 60 38 62
38 2 0 141 85 195 120 151 97 172 113 181 137 23 61 -15 179 -99 309 -58 90
-343 474 -379 510 -64 64 -171 115 -273 129 -53 8 -168 14 -173 9z"/>
</g>
</svg>
